<svg width="24" height="24" viewBox="0 0 24 24" fill="none" xmlns="http://www.w3.org/2000/svg">
<path d="M19.5 5H9.50002C8.23402 5 6.66602 5.807 5.93002 6.837L3.32002 10.49L2.12102 12.169C2.00002 12.344 1.99902 12.661 2.12402 12.833L3.31202 14.497L5.93103 18.164C6.66603 19.193 8.23302 20 9.50002 20H19.5C20.879 20 22 18.878 22 17.5V7.5C22 6.122 20.879 5 19.5 5ZM17.207 14.793C17.2999 14.8858 17.3735 14.9961 17.4238 15.1174C17.474 15.2387 17.4999 15.3687 17.4999 15.5C17.4999 15.6313 17.474 15.7613 17.4238 15.8826C17.3735 16.0039 17.2999 16.1142 17.207 16.207C17.1142 16.2998 17.004 16.3735 16.8827 16.4237C16.7613 16.474 16.6313 16.4998 16.5 16.4998C16.3687 16.4998 16.2387 16.474 16.1174 16.4237C15.9961 16.3735 15.8859 16.2998 15.793 16.207L13.5 13.914L11.207 16.207C11.1144 16.3002 11.0042 16.3741 10.8829 16.4246C10.7615 16.4751 10.6314 16.501 10.5 16.501C10.3686 16.501 10.2385 16.4751 10.1172 16.4246C9.99584 16.3741 9.88568 16.3002 9.79303 16.207C9.70008 16.1142 9.62634 16.004 9.57603 15.8827C9.52572 15.7614 9.49982 15.6313 9.49982 15.5C9.49982 15.3687 9.52572 15.2386 9.57603 15.1173C9.62634 14.996 9.70008 14.8858 9.79303 14.793L12.086 12.5L9.79303 10.207C9.70018 10.1142 9.62653 10.0039 9.57628 9.88263C9.52604 9.76132 9.50018 9.6313 9.50018 9.5C9.50018 9.3687 9.52604 9.23868 9.57628 9.11737C9.62653 8.99607 9.70018 8.88584 9.79303 8.793C9.88587 8.70016 9.99609 8.62651 10.1174 8.57626C10.2387 8.52601 10.3687 8.50015 10.5 8.50015C10.6313 8.50015 10.7613 8.52601 10.8827 8.57626C11.004 8.62651 11.1142 8.70016 11.207 8.793L13.5 11.086L15.793 8.793C15.8859 8.70016 15.9961 8.62651 16.1174 8.57626C16.2387 8.52601 16.3687 8.50015 16.5 8.50015C16.6313 8.50015 16.7613 8.52601 16.8827 8.57626C17.004 8.62651 17.1142 8.70016 17.207 8.793C17.2999 8.88584 17.3735 8.99607 17.4238 9.11737C17.474 9.23868 17.4999 9.3687 17.4999 9.5C17.4999 9.6313 17.474 9.76132 17.4238 9.88263C17.3735 10.0039 17.2999 10.1142 17.207 10.207L14.914 12.5L17.207 14.793Z" fill="#F5F5F5"/>
</svg>
