<svg width="30" height="30" viewBox="0 0 30 30" fill="none" xmlns="http://www.w3.org/2000/svg">
<path d="M8.90625 5.15625C8.53691 5.15625 8.17118 5.229 7.82995 5.37034C7.48872 5.51168 7.17868 5.71885 6.91751 5.98001C6.65635 6.24118 6.44918 6.55122 6.30784 6.89245C6.1665 7.23368 6.09375 7.59941 6.09375 7.96875C6.09375 8.33809 6.1665 8.70382 6.30784 9.04505C6.44918 9.38628 6.65635 9.69632 6.91751 9.95749C7.17868 10.2187 7.48872 10.4258 7.82995 10.5672C8.17118 10.7085 8.53691 10.7813 8.90625 10.7813C9.65217 10.7813 10.3675 10.4849 10.895 9.95749C11.4224 9.43004 11.7188 8.71467 11.7188 7.96875C11.7188 7.22283 11.4224 6.50746 10.895 5.98001C10.3675 5.45257 9.65217 5.15625 8.90625 5.15625ZM21.0938 5.15719C20.3478 5.15719 19.6325 5.4535 19.105 5.98095C18.5776 6.5084 18.2813 7.22377 18.2812 7.96969C18.2813 8.71561 18.5776 9.43098 19.105 9.95843C19.6325 10.4859 20.3478 10.7822 21.0938 10.7822C21.8397 10.7822 22.555 10.4859 23.0825 9.95843C23.6099 9.43098 23.9062 8.71561 23.9062 7.96969C23.9062 7.22377 23.6099 6.5084 23.0825 5.98095C22.555 5.4535 21.8397 5.15719 21.0938 5.15719ZM16.4062 11.7197C16.1576 11.7197 15.9192 11.8185 15.7433 11.9943C15.5675 12.1701 15.4688 12.4085 15.4688 12.6572C15.4688 12.9058 15.5675 13.1443 15.7433 13.3201C15.9192 13.4959 16.1576 13.5947 16.4062 13.5947C16.6549 13.5947 16.8933 13.4959 17.0692 13.3201C17.245 13.1443 17.3438 12.9058 17.3438 12.6572C17.3438 12.4085 17.245 12.1701 17.0692 11.9943C16.8933 11.8185 16.6549 11.7197 16.4062 11.7197ZM13.5938 11.7197C13.3451 11.7197 13.1067 11.8185 12.9308 11.9943C12.755 12.1701 12.6562 12.4085 12.6562 12.6572C12.6562 12.9058 12.755 13.1443 12.9308 13.3201C13.1067 13.4959 13.3451 13.5947 13.5938 13.5947C13.8424 13.5947 14.0808 13.4959 14.2567 13.3201C14.4325 13.1443 14.5312 12.9058 14.5312 12.6572C14.5312 12.4085 14.4325 12.1701 14.2567 11.9943C14.0808 11.8185 13.8424 11.7197 13.5938 11.7197Z" fill="#435745"/>
<path d="M15.1594 6.56343C15.481 5.20561 16.259 3.99931 17.3632 3.14613C18.4673 2.29295 19.8309 1.84457 21.2259 1.87593H21.2287C24.4969 1.95468 27.1434 4.62187 27.1875 7.90218V7.90405C27.198 8.80773 27.0074 9.70243 26.6297 10.5234C28.2031 12.4482 29.0626 14.8577 29.0625 17.3437C29.0625 23.2997 24.2363 28.125 18.2812 28.125H11.7188C5.76375 28.125 0.9375 23.2997 0.9375 17.3437C0.9375 14.7553 1.85625 12.3806 3.37313 10.5187C2.99277 9.69652 2.80122 8.79961 2.8125 7.89374V7.89187C2.85656 4.61999 5.50312 1.95374 8.77125 1.87687H8.77406C10.168 1.84624 11.5302 2.29506 12.6329 3.14828C13.7356 4.0015 14.5119 5.2074 14.8322 6.56437H15.1603L15.1594 6.56343ZM16.9125 7.37624C16.8718 7.67057 16.7259 7.94023 16.5019 8.13546C16.2779 8.33068 15.9909 8.43829 15.6937 8.43843H14.2969C13.6678 8.43843 13.1578 7.96968 13.0772 7.37343C12.9337 6.3523 12.4203 5.41936 11.6346 4.75163C10.8488 4.08389 9.84528 3.7278 8.81438 3.75093C6.55313 3.8053 4.71844 5.65687 4.6875 7.91624C4.67932 8.55092 4.81523 9.17919 5.085 9.75374L5.08781 9.7603L5.09062 9.76687C5.232 10.0783 5.28348 10.423 5.23925 10.7621C5.19502 11.1012 5.05683 11.4212 4.84031 11.6859C3.38939 13.4486 2.67115 15.7013 2.83406 17.9784L2.88938 17.9803C3.10125 17.9897 3.40219 17.9991 3.75187 17.9972C4.46437 17.9925 5.33156 17.9419 6.06281 17.7769C6.33469 17.7159 6.68156 17.5341 7.2075 17.1862C7.36125 17.085 7.53375 16.9669 7.72031 16.8394C8.14774 16.5415 8.58288 16.2548 9.02531 15.9797C10.4747 15.0947 12.3722 14.2378 15 14.2378C17.6044 14.2378 19.4287 14.9878 20.8116 15.8475C21.4397 16.2375 21.975 16.65 22.4231 16.9941L22.5244 17.0728C23.0175 17.4516 23.3588 17.7009 23.6606 17.8434C24.42 18.1997 24.8231 18.3028 25.2412 18.3403C25.5506 18.3684 25.8497 18.3619 26.2856 18.3525C26.52 18.3478 26.7947 18.3422 27.1322 18.3403C27.2657 17.1555 27.1598 15.9559 26.8208 14.8129C26.4818 13.6698 25.9166 12.6064 25.1588 11.6859C24.9424 11.4228 24.8043 11.1042 24.7603 10.7664C24.7162 10.4286 24.7678 10.0852 24.9094 9.7753L24.9122 9.7678C25.1747 9.20437 25.32 8.58374 25.3125 7.92468C25.2948 6.83131 24.8558 5.78696 24.0869 5.00938C23.318 4.23179 22.2787 3.78098 21.1856 3.75093C20.1532 3.72741 19.148 4.0835 18.3606 4.75169C17.5732 5.41987 17.0573 6.35373 16.9125 7.37624ZM26.7141 20.2219L26.4703 20.2266C25.9416 20.2359 25.4812 20.2453 25.0753 20.2087C24.3712 20.1459 23.7478 19.9566 22.8628 19.5403C22.3453 19.2966 21.8428 18.9131 21.3834 18.5606L21.2906 18.4894C20.835 18.1387 20.3691 17.7797 19.8234 17.4412C18.6872 16.7353 17.2012 16.1137 15.0009 16.1137C12.8241 16.1137 11.265 16.8103 10.0041 17.5809C9.57469 17.8434 9.20719 18.0947 8.84531 18.3431C8.64563 18.48 8.44781 18.6159 8.24156 18.7519C7.71188 19.1025 7.11375 19.4625 6.47719 19.6069C5.55094 19.8159 4.52812 19.8684 3.765 19.8731C3.56811 19.8743 3.37121 19.8724 3.17437 19.8675C3.71948 21.7107 4.84609 23.3282 6.38602 24.4785C7.92596 25.6288 9.79662 26.2502 11.7188 26.25H18.2812C20.1401 26.2503 21.9526 25.6691 23.4646 24.5878C24.9767 23.5064 26.1125 21.9792 26.7131 20.22L26.7141 20.2219Z" fill="#435745"/>
</svg>
