<svg width="24" height="24" viewBox="0 0 24 24" fill="none" xmlns="http://www.w3.org/2000/svg">
<path d="M17.414 6.58604C17.0389 6.2111 16.5303 6.00047 16 6.00047C15.4697 6.00047 14.961 6.2111 14.586 6.58604L12 9.17204L9.41398 6.58604C9.22949 6.39502 9.0088 6.24266 8.76479 6.13784C8.52078 6.03302 8.25834 5.97785 7.99278 5.97554C7.72722 5.97323 7.46386 6.02384 7.21807 6.1244C6.97228 6.22496 6.74897 6.37347 6.56119 6.56125C6.3734 6.74904 6.2249 6.97234 6.12434 7.21813C6.02377 7.46392 5.97317 7.72728 5.97548 7.99284C5.97779 8.2584 6.03296 8.52084 6.13778 8.76485C6.24259 9.00886 6.39496 9.22955 6.58598 9.41404L9.17098 12L6.58598 14.586C6.39496 14.7705 6.24259 14.9912 6.13778 15.2352C6.03296 15.4792 5.97779 15.7417 5.97548 16.0072C5.97317 16.2728 6.02377 16.5362 6.12434 16.7819C6.2249 17.0277 6.3734 17.251 6.56119 17.4388C6.74897 17.6266 6.97228 17.7751 7.21807 17.8757C7.46386 17.9762 7.72722 18.0268 7.99278 18.0245C8.25834 18.0222 8.52078 17.9671 8.76479 17.8622C9.0088 17.7574 9.22949 17.6051 9.41398 17.414L12 14.828L14.586 17.414C14.976 17.805 15.488 18 16 18C16.512 18 17.024 17.805 17.414 17.414C17.7889 17.039 17.9996 16.5304 17.9996 16C17.9996 15.4697 17.7889 14.9611 17.414 14.586L14.829 12L17.414 9.41404C17.7889 9.03898 17.9996 8.53037 17.9996 8.00004C17.9996 7.46971 17.7889 6.9611 17.414 6.58604Z" fill="#435745"/>
</svg>
